<svg width="32px" height="32px" viewBox="0 0 512 512" fill="none" xmlns="http://www.w3.org/2000/svg">
<path d="M89.76 390.661C89.76 390.661 274.495 457.595 377.767 329.2C481.039 200.805 456 53.333 456 53.333C367.357 124 219.6 85.7 118.692 208.386C48.8 293.356 89.76 390.661 89.76 390.661Z" fill="#2ECC71" id="id_101"></path>
<path opacity="0.25" d="M456 53.333C453.771 55.11 451.495 56.8 449.193 58.444C437.555 126.46 407.045 219.867 329.179 302.344C256.419 379.409 162.157 390.672 87.079 383.129C88.638 387.977 89.767 390.665 89.767 390.665C89.767 390.665 274.495 457.595 377.767 329.2C481.039 200.805 456 53.333 456 53.333Z" fill="#105E30" id="id_102"></path>
<path d="M466.511 51.547C466.201 49.7177 465.418 48.001 464.241 46.5666C463.065 45.1321 461.534 44.0294 459.8 43.3675C458.067 42.7055 456.191 42.5072 454.358 42.7921C452.524 43.077 450.797 43.8353 449.346 44.992C414.385 72.864 368.512 83.124 319.946 93.987C250.46 109.529 171.7 127.144 110.454 201.61C72.208 248.109 65.91 298.1 67.361 331.846C68.1564 351.414 71.7043 370.772 77.9 389.35C53.788 426.943 43.789 453.72 43.325 454.982C42.3706 457.631 42.5022 460.55 43.691 463.102C44.8799 465.654 47.0296 467.633 49.6714 468.607C52.3132 469.58 55.2328 469.47 57.7937 468.3C60.3546 467.13 62.3489 464.995 63.342 462.36C63.442 462.077 72.619 437.65 94.286 403.35C126.968 413.058 160.827 418.239 194.916 418.75C196.203 418.765 197.485 418.772 198.763 418.772C232.91 418.772 264.563 413.464 292.902 402.98C329.523 389.581 361.757 366.374 386.082 335.895C440.996 267.625 459.957 194.109 466.196 144.457C472.958 90.59 466.778 53.117 466.511 51.547ZM444.928 142.558C438.965 189.264 421.028 258.4 369.456 322.519C347.614 349.89 318.69 370.754 285.826 382.845C258.973 392.831 228.655 397.739 195.782 397.419C165.667 396.96 135.732 392.686 106.692 384.701C114.609 373.392 124.213 360.747 135.622 347.407C148.358 349.97 177.822 355.256 204.139 355.255C209.286 355.276 214.43 355.037 219.553 354.54C222.367 354.254 224.953 352.861 226.74 350.668C228.528 348.476 229.371 345.663 229.084 342.849C228.798 340.034 227.405 337.449 225.213 335.661C223.02 333.874 220.207 333.031 217.393 333.317C197.159 335.371 170.108 331.817 152.369 328.794C166.293 314.067 181.1 300.202 196.708 287.274C208.663 290.825 237.543 298.014 275.488 298.013C285.533 298.015 295.571 297.507 305.564 296.49C306.977 296.373 308.353 295.976 309.611 295.321C310.869 294.667 311.984 293.768 312.89 292.677C313.796 291.586 314.476 290.326 314.889 288.969C315.303 287.613 315.442 286.188 315.298 284.777C315.154 283.366 314.73 281.998 314.052 280.753C313.373 279.508 312.453 278.411 311.345 277.526C310.237 276.641 308.964 275.985 307.6 275.598C306.235 275.21 304.808 275.099 303.4 275.27C274.859 278.12 246.049 276.548 217.987 270.61C230.412 261.423 243.749 252.467 258.043 243.941C272.337 235.415 286.043 226.874 299.116 218.353C312.398 220.389 325.807 221.485 339.244 221.63C346.617 221.718 353.982 221.137 361.25 219.895C362.632 219.642 363.951 219.119 365.13 218.354C366.31 217.59 367.327 216.601 368.122 215.442C368.918 214.284 369.477 212.98 369.767 211.605C370.057 210.23 370.073 208.811 369.813 207.43C369.553 206.049 369.023 204.733 368.253 203.557C367.483 202.382 366.489 201.37 365.326 200.58C364.164 199.79 362.857 199.238 361.481 198.954C360.105 198.671 358.686 198.662 357.306 198.929C348.331 200.617 336.899 200.543 326.506 199.871C344.884 187.028 361.783 174.258 377.048 161.643C378.136 160.753 379.038 159.658 379.702 158.418C380.365 157.179 380.777 155.821 380.914 154.422C381.051 153.023 380.91 151.611 380.499 150.266C380.088 148.922 379.416 147.672 378.52 146.588C377.625 145.505 376.524 144.609 375.281 143.952C374.038 143.296 372.678 142.891 371.278 142.762C369.878 142.633 368.467 142.781 367.125 143.199C365.783 143.617 364.537 144.297 363.458 145.198C347.739 158.187 330.276 171.332 311.067 184.633C312.524 179.066 314.544 173.662 317.094 168.503C318.457 166.024 318.78 163.105 317.992 160.388C317.203 157.671 315.367 155.378 312.888 154.015C310.409 152.652 307.49 152.329 304.773 153.117C302.056 153.906 299.763 155.742 298.4 158.221C297.981 158.98 288.765 175.943 286.469 201.126C273.936 209.275 260.817 217.439 247.114 225.618C232.679 234.228 219.185 243.261 206.576 252.524C210.247 224.115 219.208 196.051 219.323 195.695C220.139 193.018 219.87 190.127 218.575 187.646C217.279 185.165 215.06 183.293 212.396 182.433C209.732 181.573 206.838 181.795 204.336 183.05C201.834 184.305 199.926 186.494 199.023 189.143C198.412 191.036 184.682 233.973 183.751 270.316C168.604 282.818 154.176 296.168 140.537 310.3C141.095 297.161 143.582 284.175 147.918 271.759C148.922 269.132 148.847 266.214 147.711 263.641C146.574 261.068 144.467 259.049 141.849 258.022C139.23 256.995 136.312 257.043 133.729 258.157C131.147 259.271 129.108 261.36 128.058 263.969C127.511 265.361 115.308 297.011 120.3 332.51C110.038 344.445 101.136 355.879 93.54 366.385C90.7682 354.485 89.1275 342.35 88.64 330.142C86.957 286.782 99.84 248.096 126.929 215.161C183.518 146.361 255.239 130.319 324.6 114.805C369.091 104.854 411.43 95.384 447.266 72.623C448.713 95.956 447.93 119.374 444.928 142.558Z" fill="#000000" id="id_103"></path>
</svg>