<svg version="1.1" id="Layer_1" height="48px" width="48px" xmlns="http://www.w3.org/2000/svg" xmlns:xlink="http://www.w3.org/1999/xlink" x="0px" y="0px" viewBox="0 0 512 512" style="enable-background:new 0 0 512 512;" xml:space="preserve">
<style type="text/css">
	.st0{fill:#80B38F;}
</style>
<path class="st0" d="M426.9938,179.5291c-11.4324,0-22.257,2.6012-31.9154,7.2433
	c-27.3336-42.1866-70.6074-71.6536-120.5073-78.4028c0.2163-0.9645,0.3342-1.9649,0.3342-2.9921V92.8656
	c0-7.5608-6.1861-13.7466-13.7469-13.7466h-18.06c-7.5607,0-13.7468,6.1859-13.7468,13.7466v12.5119
	c0,1.0774,0.1297,2.1255,0.3669,3.133c-62.0022,8.7657-113.6568,52.6105-136.9739,112.291
	c-23.0391-24.6664-33.3715-48.6959-33.3715-48.6959H10.8225c12.5167,73.7856,41.8999,123.9575,72.1048,157.4452
	c7.7812,40.6977,28.0282,76.5378,56.2908,102.7502h226.8181c28.8636-26.7702,49.367-63.5818,56.7701-105.3538
	c1.3864,0.0775,2.782,0.1205,4.1876,0.1205c40.7416,0,73.7695-33.0274,73.7695-73.7693S467.7354,179.5291,426.9938,179.5291z
	 M253.9166,122.1549c46.3985,0,88.2062,20.9995,117.5947,54.5903H136.3222C165.7104,143.1545,207.5184,122.1549,253.9166,122.1549z
	 M369.9042,416.4972c-2.4432,2.5385-5.8144,3.973-9.3376,3.973H145.346c-3.6812,0-7.1888-1.5656-9.6469-4.3058l-4.4381-4.9469
	h243.7247L369.9042,416.4972z M428.1553,301.3606c-0.8443,0-1.683-0.0226-2.5167-0.0656c0.1357-3.0082,0.2084-6.0336,0.2084-9.0778
	c0-29.654-6.5211-57.6745-18.0956-82.5287c6.1955-2.9066,13.1077-4.5394,20.4038-4.5394c26.5678,0,48.1054,21.5379,48.1054,48.1057
	S454.7231,301.3606,428.1553,301.3606z" id="id_101" style="fill: rgb(255, 255, 255);"></path>
</svg>