<?xml version="1.0" encoding="UTF-8" standalone="no"?> <svg width="64" height="64" viewBox="0 0 64 64" fill="none" xmlns="http://www.w3.org/2000/svg">
<path d="M14.619 32.581C13.2833 33.6179 12.1831 34.9268 11.3912 36.421C10.5994 37.9151 10.1341 39.5605 10.026 41.248C9.34907 39.5811 9.00069 37.7991 9 36V27.908C8.99741 25.5351 8.52146 23.1866 7.6 21H3C4.95606 23.9341 5.9999 27.3816 6 30.908V39C6 42.713 7.475 46.274 10.1005 48.8995C12.726 51.525 16.287 53 20 53H21L14.619 32.581Z" fill="#CFF09E"/>
<path d="M21.07 27.968C23.6819 26.6742 26.5572 26.0007 29.472 26H41.408C41.1389 25.3675 41.0002 24.6873 41 24H23C23.0042 24.7651 22.8323 25.521 22.4976 26.209C22.163 26.8971 21.6745 27.4989 21.07 27.968Z" fill="#CFF09E"/>
<path d="M27 22C26.4696 22 25.9609 21.7893 25.5858 21.4142C25.2107 21.0391 25 20.5304 25 20C24.2044 20 23.4413 20.3161 22.8787 20.8787C22.3161 21.4413 22 22.2044 22 23V24H42V23C41.9968 22.6586 41.9345 22.3202 41.816 22H27Z" fill="#CFF09E"/>
<path d="M56.961 43.761C56.8582 44.8244 56.5431 45.8564 56.0346 46.7959C55.526 47.7354 54.8341 48.5635 54 49.231V53.9C55.5668 53.1783 56.9601 52.1282 58.0855 50.8209C59.211 49.5136 60.0423 47.9796 60.523 46.323C59.2155 45.6498 58.0151 44.7864 56.961 43.761V43.761Z" fill="#CFF09E"/>
<path d="M36 55V47H49.82C49.9358 46.3395 49.996 45.6705 50 45V39C50.0003 36.8138 49.4022 34.6692 48.2705 32.7987C47.1388 30.9283 45.5167 29.4032 43.58 28.389C42.7919 27.9607 42.1353 27.3259 41.6808 26.5526C41.2262 25.7794 40.9909 24.8969 41 24H23C23.0091 24.8969 22.7738 25.7794 22.3192 26.5526C21.8647 27.3259 21.2081 27.9607 20.42 28.389C18.4833 29.4032 16.8612 30.9283 15.7295 32.7987C14.5978 34.6692 13.9997 36.8138 14 39V45C14 48.1826 15.2643 51.2348 17.5147 53.4853C19.7652 55.7357 22.8174 57 26 57H36.349C36.1193 56.3581 36.0013 55.6817 36 55V55Z" fill="#CFF09E"/>
<path d="M36 55H22V59C22 59.5304 22.2107 60.0391 22.5858 60.4142C22.9609 60.7893 23.4696 61 24 61H40C40.2473 60.9989 40.4922 60.9515 40.722 60.86C39.3845 60.5684 38.1869 59.8283 37.328 58.7624C36.4691 57.6965 36.0005 56.3689 36 55V55Z" fill="#CFF09E"/>
<path d="M35.859 20C35.9483 19.674 35.9957 19.3379 36 19C36 18.953 35.988 18.909 35.986 18.863C35.4079 19.0196 34.8018 19.0424 34.2135 18.9297C33.6253 18.817 33.0705 18.5718 32.5912 18.2126C32.112 17.8535 31.7208 17.3898 31.4475 16.8569C31.1743 16.324 31.026 15.7358 31.014 15.137C30.5014 15.2595 30.0187 15.4839 29.5946 15.7969C29.1706 16.11 28.8139 16.5051 28.5458 16.9589C28.2777 17.4127 28.1037 17.9158 28.0341 18.4383C27.9646 18.9607 28.001 19.4918 28.141 20H35.859Z" fill="#CFF09E"/>
<path d="M40 41H44V42C44 43.3261 43.4732 44.5979 42.5355 45.5355C41.5979 46.4732 40.3261 47 39 47H36V45C36 43.9391 36.4214 42.9217 37.1716 42.1716C37.9217 41.4214 38.9391 41 40 41V41Z" fill="#79BD9A"/>
<path d="M36 50H33C31.6739 50 30.4021 49.4732 29.4645 48.5355C28.5268 47.5979 28 46.3261 28 45V44H32C33.0609 44 34.0783 44.4214 34.8284 45.1716C35.5786 45.9217 36 46.9391 36 48V50Z" fill="#79BD9A"/>
<path d="M53 57H51C48.3478 57 45.8043 55.9464 43.9289 54.0711C42.0536 52.1957 41 49.6522 41 47H36V55C36 56.5913 36.6321 58.1174 37.7574 59.2426C38.8826 60.3679 40.4087 61 42 61H48C49.2471 60.9991 50.4628 60.6096 51.4783 59.8857C52.4937 59.1619 53.2584 58.1396 53.666 56.961C53.4449 56.9861 53.2225 56.9991 53 57V57Z" fill="#CFF09E"/>
<path d="M43.792 34.2111C43.9213 34.2407 44.0552 34.2443 44.186 34.2217C44.3167 34.1991 44.4416 34.1507 44.5534 34.0794C44.6653 34.008 44.7618 33.9151 44.8374 33.8061C44.9129 33.6971 44.9661 33.5741 44.9937 33.4444C45.0213 33.3146 45.0228 33.1807 44.9981 33.0503C44.9734 32.92 44.9231 32.7959 44.8499 32.6852C44.7768 32.5745 44.6824 32.4795 44.5722 32.4056C44.462 32.3318 44.3382 32.2806 44.208 32.2551C36.1545 30.5901 27.8455 30.5901 19.792 32.2551C19.6618 32.2806 19.5381 32.3318 19.4278 32.4056C19.3176 32.4795 19.2232 32.5745 19.1501 32.6852C19.077 32.7959 19.0266 32.92 19.002 33.0503C18.9773 33.1807 18.9788 33.3146 19.0064 33.4444C19.034 33.5741 19.0871 33.6971 19.1627 33.8061C19.2383 33.9151 19.3348 34.008 19.4466 34.0794C19.5585 34.1507 19.6834 34.1991 19.8141 34.2217C19.9448 34.2443 20.0787 34.2407 20.208 34.2111C27.9872 32.604 36.0128 32.604 43.792 34.2111V34.2111Z" fill="#3B8686"/>
<path d="M53.08 22C50.8485 21.9983 48.6978 22.8348 47.054 24.344L43.784 27.344C42.9436 26.8014 42.3469 25.9533 42.12 24.979C42.3613 24.9522 42.5843 24.8377 42.7466 24.6572C42.9088 24.4766 42.9991 24.2427 43 24V23C43 21.9391 42.5786 20.9217 41.8285 20.1716C41.0783 19.4214 40.0609 19 39 19H37C37 17.6739 36.4732 16.4021 35.5356 15.4645C34.5979 14.5268 33.3261 14 32 14C30.6739 14 29.4022 14.5268 28.4645 15.4645C27.5268 16.4021 27 17.6739 27 19H25C23.9392 19 22.9217 19.4214 22.1716 20.1716C21.4215 20.9217 21 21.9391 21 23V24C21.0017 24.2422 21.0923 24.4754 21.2545 24.6553C21.4167 24.8352 21.6393 24.9493 21.88 24.976C21.7575 25.5097 21.5223 26.011 21.1901 26.4464C20.8579 26.8817 20.4365 27.2409 19.954 27.5C18.1172 28.4639 16.5371 29.8524 15.345 31.55L11.954 20.7C11.8902 20.497 11.7632 20.3196 11.5917 20.1938C11.4201 20.0679 11.2128 20 11 20H3.00003C2.81898 20 2.64133 20.0491 2.48602 20.1421C2.33071 20.2352 2.20356 20.3686 2.11815 20.5282C2.03274 20.6879 1.99227 20.8677 2.00106 21.0485C2.00984 21.2293 2.06755 21.4044 2.16803 21.555C4.01768 24.3233 5.00337 27.5786 5.00003 30.908V39C4.99436 42.3095 6.08797 45.5272 8.10916 48.1479C10.1303 50.7685 12.9646 52.6437 16.167 53.479C17.484 55.0106 19.1384 56.2159 21 57V59C21 59.7956 21.3161 60.5587 21.8787 61.1213C22.4413 61.6839 23.2044 62 24 62H48C49.8559 61.9979 51.6351 61.2597 52.9474 59.9474C54.2597 58.6351 54.9979 56.8559 55 55V54.513C57.105 53.4138 58.8696 51.7603 60.1033 49.7313C61.3369 47.7022 61.9928 45.3747 62 43V30.919C61.9974 28.5542 61.0567 26.287 59.3844 24.6149C57.7122 22.9428 55.4449 22.0024 53.08 22ZM32 16C32.7957 16 33.5587 16.3161 34.1213 16.8787C34.684 17.4413 35 18.2044 35 19H29C29 18.2044 29.3161 17.4413 29.8787 16.8787C30.4413 16.3161 31.2044 16 32 16ZM25 21H39C39.5305 21 40.0392 21.2107 40.4142 21.5858C40.7893 21.9609 41 22.4696 41 23H23C23 22.4696 23.2107 21.9609 23.5858 21.5858C23.9609 21.2107 24.4696 21 25 21V21ZM7.00003 39V30.908C7.00292 27.7996 6.23501 24.7389 4.76503 22H10.265L14.01 33.984C13.3434 35.5723 13.0001 37.2775 13 39V45C13.0021 46.9677 13.4543 48.9089 14.322 50.675C12.1254 49.6167 10.2725 47.9592 8.97707 45.8936C7.6816 43.828 6.99625 41.4383 7.00003 39V39ZM15 45V39C14.9985 36.9957 15.5464 35.0293 16.5841 33.3146C17.6219 31.5999 19.1097 30.2024 20.886 29.274C21.6889 28.8461 22.381 28.237 22.9076 27.4952C23.4342 26.7533 23.7809 25.8991 23.92 25H40.08C40.2192 25.8991 40.5658 26.7533 41.0924 27.4952C41.6191 28.237 42.3112 28.8461 43.114 29.274C44.8903 30.2024 46.3782 31.5999 47.4159 33.3146C48.4536 35.0293 49.0015 36.9957 49 39V45C48.9977 45.3341 48.9787 45.6678 48.943 46H43.46C44.4509 44.9033 44.9996 43.478 45 42V41C45 40.7348 44.8947 40.4804 44.7071 40.2929C44.5196 40.1054 44.2652 40 44 40H40C38.8317 40.0022 37.701 40.4135 36.8042 41.1624C35.9075 41.9114 35.3013 42.9507 35.091 44.1C34.2158 43.3924 33.1255 43.0044 32 43H28C27.7348 43 27.4805 43.1054 27.2929 43.2929C27.1054 43.4804 27 43.7348 27 44V45C27.0016 46.5908 27.6343 48.116 28.7591 49.2409C29.884 50.3658 31.4092 50.9984 33 51H35V55C35.0028 55.3348 35.0296 55.669 35.08 56H26C23.0837 55.9966 20.2878 54.8365 18.2257 52.7744C16.1635 50.7122 15.0035 47.9163 15 45V45ZM54.939 46.7C54.8777 46.4984 54.7535 46.3216 54.5846 46.1957C54.4156 46.0697 54.2108 46.0011 54 46H50.954C50.983 45.658 51 45.325 51 45V39C51.0012 36.2005 50.0941 33.4761 48.415 31.236L51.108 28.767C51.5258 28.3844 52.0458 28.1317 52.6047 28.0395C53.1636 27.9472 53.7373 28.0196 54.2558 28.2477C54.7743 28.4758 55.2153 28.8498 55.525 29.3241C55.8347 29.7984 55.9997 30.3525 56 30.919V43C56.0016 44.3086 55.6338 45.5911 54.939 46.7V46.7ZM32 48C32.4196 48.0013 32.8341 48.0911 33.2166 48.2634C33.5991 48.4357 33.941 48.6867 34.22 49H33C31.9392 49 30.9217 48.5786 30.1716 47.8284C29.4215 47.0783 29 46.0609 29 45H32C32.5911 45.0001 33.1689 45.1748 33.661 45.5022C34.1531 45.8295 34.5375 46.2949 34.766 46.84C33.9477 46.292 32.9849 45.9996 32 46C31.7348 46 31.4805 46.1054 31.2929 46.2929C31.1054 46.4804 31 46.7348 31 47C31 47.2652 31.1054 47.5196 31.2929 47.7071C31.4805 47.8946 31.7348 48 32 48ZM40 43C39.0151 42.9996 38.0524 43.292 37.234 43.84C37.4626 43.2949 37.847 42.8295 38.3391 42.5022C38.8312 42.1748 39.409 42.0001 40 42H43C43 43.0609 42.5786 44.0783 41.8285 44.8284C41.0783 45.5786 40.0609 46 39 46H37.78C38.059 45.6867 38.4009 45.4357 38.7834 45.2634C39.166 45.0911 39.5805 45.0013 40 45C40.2652 45 40.5196 44.8946 40.7071 44.7071C40.8947 44.5196 41 44.2652 41 44C41 43.7348 40.8947 43.4804 40.7071 43.2929C40.5196 43.1054 40.2652 43 40 43ZM24 60C23.7348 60 23.4805 59.8946 23.2929 59.7071C23.1054 59.5196 23 59.2652 23 59V57.637C23.9825 57.8746 24.9893 57.9964 26 58H35.685C36.0391 58.7453 36.5218 59.4224 37.111 60H24ZM53 55C52.9984 56.3256 52.4711 57.5964 51.5338 58.5338C50.5965 59.4711 49.3256 59.9984 48 60H42C40.6744 59.9984 39.4036 59.4711 38.4662 58.5338C37.5289 57.5964 37.0016 56.3256 37 55V48H53V55ZM60 43C59.994 44.8277 59.5339 46.6252 58.6612 48.2311C57.7884 49.8369 56.5304 51.2008 55 52.2V49.678C55.943 48.8396 56.6978 47.8111 57.2148 46.6601C57.7319 45.5092 57.9995 44.2618 58 43V30.919C58 29.9643 57.7222 29.0302 57.2005 28.2307C56.6787 27.4312 55.9356 26.8008 55.0617 26.4163C54.1878 26.0319 53.2209 25.9101 52.279 26.0658C51.337 26.2215 50.4608 26.6479 49.757 27.293L47.1 29.73C46.62 29.2572 46.1037 28.8225 45.556 28.43L48.407 25.816C49.3969 24.9072 50.6298 24.3063 51.9555 24.0866C53.2811 23.8669 54.6421 24.0378 55.8721 24.5787C57.1022 25.1195 58.1483 26.0067 58.8825 27.1321C59.6168 28.2575 60.0075 29.5723 60.007 30.916L60 43Z" fill="#3B8686"/>
<path d="M41 56C41.2652 56 41.5196 55.8946 41.7071 55.7071C41.8946 55.5196 42 55.2652 42 55V52C42 51.7348 41.8946 51.4804 41.7071 51.2929C41.5196 51.1054 41.2652 51 41 51C40.7348 51 40.4804 51.1054 40.2929 51.2929C40.1054 51.4804 40 51.7348 40 52V55C40 55.2652 40.1054 55.5196 40.2929 55.7071C40.4804 55.8946 40.7348 56 41 56Z" fill="#3B8686"/>
<path d="M45 56C45.2652 56 45.5196 55.8946 45.7071 55.7071C45.8946 55.5196 46 55.2652 46 55V52C46 51.7348 45.8946 51.4804 45.7071 51.2929C45.5196 51.1054 45.2652 51 45 51C44.7348 51 44.4804 51.1054 44.2929 51.2929C44.1054 51.4804 44 51.7348 44 52V55C44 55.2652 44.1054 55.5196 44.2929 55.7071C44.4804 55.8946 44.7348 56 45 56Z" fill="#3B8686"/>
<path d="M49 56C49.2652 56 49.5196 55.8946 49.7071 55.7071C49.8946 55.5196 50 55.2652 50 55V52C50 51.7348 49.8946 51.4804 49.7071 51.2929C49.5196 51.1054 49.2652 51 49 51C48.7348 51 48.4804 51.1054 48.2929 51.2929C48.1054 51.4804 48 51.7348 48 52V55C48 55.2652 48.1054 55.5196 48.2929 55.7071C48.4804 55.8946 48.7348 56 49 56Z" fill="#3B8686"/>
</svg>
