<svg width="62px" height="62px" viewBox="0 0 101 101" fill="none" xmlns="http://www.w3.org/2000/svg">
<path d="M31.49 56.6104C31.49 56.2125 31.332 55.831 31.0507 55.5497C30.7693 55.2684 30.3878 55.1104 29.99 55.1104C29.5922 55.1104 29.2106 55.2684 28.9293 55.5497C28.648 55.831 28.49 56.2125 28.49 56.6104C28.5002 60.4273 29.6683 64.1514 31.84 67.2904C32.0641 67.6192 32.4097 67.8456 32.8007 67.9197C33.1917 67.9937 33.5961 67.9095 33.925 67.6853C34.2539 67.4612 34.4802 67.1157 34.5543 66.7247C34.6284 66.3336 34.5441 65.9292 34.32 65.6003C32.4881 62.9594 31.5012 59.8245 31.49 56.6104V56.6104Z" fill="#ffffff" stroke="#ffffff" stroke-width="2.2" id="id_104"></path>
<path d="M61.54 71.3997C58.3534 73.1117 54.7924 74.0078 51.175 74.0078C47.5576 74.0078 43.9966 73.1117 40.81 71.3997C40.6385 71.274 40.4423 71.1861 40.2343 71.142C40.0263 71.0979 39.8113 71.0985 39.6035 71.1438C39.3957 71.1891 39.2 71.2781 39.0292 71.4048C38.8585 71.5315 38.7166 71.6931 38.613 71.8788C38.5095 72.0645 38.4466 72.2701 38.4285 72.482C38.4105 72.6938 38.4376 72.9071 38.5083 73.1077C38.5789 73.3082 38.6914 73.4915 38.8382 73.6453C38.9851 73.7991 39.1629 73.9199 39.36 73.9997C42.9919 75.9585 47.0536 76.984 51.18 76.984C55.3064 76.984 59.3682 75.9585 63 73.9997C63.3353 73.8017 63.5805 73.4811 63.6836 73.1056C63.7868 72.7301 63.74 72.3292 63.553 71.9877C63.366 71.6462 63.0535 71.3907 62.6816 71.2754C62.3096 71.1601 61.9075 71.1939 61.56 71.3697L61.54 71.3997Z" fill="#ffffff" stroke="#ffffff" stroke-width="2.2" id="id_105"></path>
<path d="M81.29 64.76C82.1 62.06 85.05 60.28 89.37 57.98C94.45 55.27 100.21 52.2 99.37 45.44C99.0441 42.916 97.8653 40.5792 96.0292 38.8171C94.193 37.0549 91.8097 35.9733 89.2744 35.7515C86.7392 35.5298 84.2043 36.1812 82.09 37.5977C79.9758 39.0143 78.4092 41.1109 77.65 43.54C75.1383 40.0342 71.9413 37.0745 68.2527 34.84C64.564 32.6055 60.4604 31.1427 56.19 30.54C57.0517 29.5044 57.6005 28.2449 57.7722 26.9087C57.9439 25.5726 57.7314 24.2152 57.1595 22.9954C56.5877 21.7757 55.6802 20.7441 54.5433 20.0215C53.4064 19.2988 52.0871 18.915 50.74 18.915C49.3929 18.915 48.0736 19.2988 46.9367 20.0215C45.7998 20.7441 44.8923 21.7757 44.3205 22.9954C43.7486 24.2152 43.5361 25.5726 43.7078 26.9087C43.8795 28.2449 44.4284 29.5044 45.29 30.54C33.83 32.3 24.44 39.54 20.83 49.23C19.5736 46.274 17.7367 43.6003 15.4281 41.3673C13.1195 39.1342 10.3861 37.3873 7.39001 36.23C7.12526 36.1406 6.8408 36.1269 6.56871 36.1905C6.29661 36.2541 6.04769 36.3925 5.85001 36.59L1.69001 40.68C1.53486 40.8425 1.41821 41.0378 1.34867 41.2515C1.27913 41.4651 1.25848 41.6917 1.28824 41.9144C1.318 42.1371 1.39741 42.3502 1.5206 42.5382C1.6438 42.7261 1.80763 42.8839 2.00001 43C3.7407 44.1456 5.1657 45.7102 6.14417 47.5501C7.12265 49.39 7.62325 51.4462 7.60001 53.53V54.53C7.60001 58.94 7.50001 66.32 12.48 71.34C15.71 74.6 20.57 76.34 26.94 76.41C30.0697 79.5 33.7811 81.9387 37.8595 83.5848C41.9379 85.2309 46.3022 86.0518 50.7 86C63.06 86 73.77 79.65 78.93 70.44C79.5164 71.5854 80.4072 72.547 81.5045 73.2192C82.6019 73.8913 83.8632 74.248 85.15 74.25C85.4576 74.2498 85.765 74.2298 86.07 74.19C86.9859 74.0741 87.8699 73.7782 88.671 73.3193C89.4721 72.8604 90.1745 72.2475 90.7377 71.516C91.301 70.7845 91.714 69.9488 91.9529 69.0571C92.1919 68.1653 92.252 67.2351 92.13 66.32C92.0783 65.9221 91.8707 65.5612 91.5528 65.3164C91.2349 65.0717 90.8328 64.9633 90.435 65.015C90.0372 65.0667 89.6762 65.2743 89.4315 65.5922C89.1867 65.9101 89.0783 66.3121 89.13 66.71C89.1957 67.2353 89.1572 67.7683 89.0169 68.2788C88.8765 68.7892 88.637 69.267 88.312 69.6848C87.987 70.1027 87.5829 70.4525 87.1227 70.7141C86.6625 70.9758 86.1553 71.1443 85.63 71.21C84.5691 71.3426 83.499 71.0483 82.6551 70.392C81.8112 69.7356 81.2626 68.7708 81.13 67.71L81.06 67.17C80.962 66.4779 80.9857 65.7739 81.13 65.09L81.29 64.76ZM80.16 47.92C79.9726 46.8343 80.0067 45.7219 80.2603 44.6497C80.5139 43.5776 80.9817 42.5678 81.6356 41.6811C82.2895 40.7944 83.116 40.0491 84.0654 39.4901C85.0148 38.931 86.0674 38.5698 87.16 38.4281C88.2526 38.2864 89.3626 38.3671 90.4232 38.6654C91.4837 38.9637 92.473 39.4735 93.3315 40.164C94.19 40.8545 94.9 41.7116 95.4187 42.6836C95.9374 43.6555 96.2542 44.7224 96.35 45.82C96.92 50.21 93.56 52.34 87.95 55.33C85.9313 56.3354 84.0011 57.5096 82.18 58.84C82.18 58.58 82.18 58.32 82.18 58.06C82.1911 54.665 81.5106 51.3033 80.18 48.18C80.181 48.0929 80.1743 48.0059 80.16 47.92V47.92ZM66.62 37.37C65.73 38.7 60.27 41.06 50.46 41.06C41.07 41.06 35.65 38.9 34.46 37.54C39.3321 34.6701 44.8777 33.1425 50.5321 33.1126C56.1865 33.0828 61.7479 34.5517 66.65 37.37H66.62ZM50.7 21.9C51.5085 21.9 52.2989 22.1396 52.9712 22.5886C53.6436 23.0375 54.1679 23.6757 54.4777 24.4225C54.7876 25.1693 54.8691 25.9911 54.7121 26.7842C54.5551 27.5773 54.1666 28.3061 53.5956 28.8785C53.0246 29.4509 52.2968 29.8412 51.504 30.0002C50.7113 30.1591 49.8893 30.0795 49.1418 29.7715C48.3942 29.4635 47.7548 28.9408 47.3042 28.2695C46.8535 27.5982 46.612 26.8085 46.61 26C46.61 24.9143 47.0406 23.873 47.8073 23.1044C48.5741 22.3357 49.6144 21.9026 50.7 21.9V21.9ZM50.7 83C46.6053 83.0509 42.5431 82.2676 38.7609 80.698C34.9786 79.1284 31.5555 76.8052 28.7 73.87C28.5599 73.7216 28.3909 73.6034 28.2035 73.5226C28.0161 73.4417 27.8141 73.4 27.61 73.4C21.76 73.4 17.4 71.99 14.61 69.21C10.51 65.08 10.61 58.74 10.61 54.54V53.54C10.6368 51.2527 10.1524 48.9884 9.19221 46.9123C8.23201 44.8362 6.82025 43.0007 5.06001 41.54L7.24001 39.36C10.4646 40.8037 13.2694 43.0432 15.3912 45.8681C17.5129 48.693 18.882 52.0108 19.37 55.51C19.37 55.9078 19.528 56.2893 19.8093 56.5706C20.0907 56.8519 20.4722 57.01 20.87 57.01C21.2678 57.01 21.6494 56.8519 21.9307 56.5706C22.212 56.2893 22.37 55.9078 22.37 55.51C22.7874 52.2838 23.8562 49.1761 25.5117 46.3758C27.1672 43.5754 29.3746 41.1409 32 39.22C34.54 42.52 42.77 44.05 50.5 44.05C58.39 44.05 66.78 42.46 69.15 39.05C75.32 43.63 79.25 50.46 79.25 58.05C79.2462 60.0099 78.9805 61.9605 78.46 63.85C78.4 64.03 78.35 64.22 78.3 64.41C75 75.1 63.91 83 50.7 83Z" fill="#ffffff" stroke="#ffffff" stroke-width="2.2" id="id_106"></path>
</svg>